<svg width="63" height="26" viewBox="0 0 63 26" fill="none" xmlns="http://www.w3.org/2000/svg">
<path d="M13.2485 20.5H0.564453V0.47998H5.10045V16.944H13.2485V20.5Z" fill="black"/>
<path fill-rule="evenodd" clip-rule="evenodd" d="M29.2869 13.248C29.2869 17.868 25.9549 20.808 21.5589 20.808C17.1909 20.808 13.8589 17.896 13.8589 13.332V13.108C13.8589 8.51602 17.1909 5.52002 21.5869 5.52002C25.9829 5.52002 29.2869 8.46002 29.2869 13.024V13.248ZM18.0029 13.248C18.0029 16.048 19.2909 17.728 21.5869 17.728C23.8549 17.728 25.1709 16.048 25.1709 13.276V13.08C25.1709 10.28 23.8549 8.60002 21.5869 8.60002C19.3469 8.60002 18.0029 10.224 18.0029 13.024V13.248Z" fill="black"/>
<path fill-rule="evenodd" clip-rule="evenodd" d="M37.665 25.904C42.4809 25.904 45.3649 23.692 45.3929 19.352V5.85602H41.361V8.04002C40.521 6.55602 39.0929 5.52002 36.7129 5.52002C33.0729 5.52002 30.2729 8.46002 30.2729 12.66V12.856C30.2729 17.196 33.1009 19.856 36.6569 19.856C38.813 19.856 40.549 18.568 41.361 17.14V19.352C41.361 21.648 40.129 22.936 37.665 22.936C35.593 22.936 34.6689 22.096 34.417 20.808H30.3849C30.7769 23.832 32.933 25.904 37.665 25.904ZM37.861 16.804C35.845 16.804 34.417 15.292 34.417 12.856V12.632C34.417 10.224 35.6769 8.60002 37.945 8.60002C40.157 8.60002 41.4729 10.112 41.4729 12.604V12.8C41.4729 15.292 39.989 16.804 37.861 16.804Z" fill="black"/>
<path fill-rule="evenodd" clip-rule="evenodd" d="M62.6616 13.248C62.6616 17.868 59.3296 20.808 54.9336 20.808C50.5656 20.808 47.2336 17.896 47.2336 13.332V13.108C47.2336 8.51602 50.5656 5.52002 54.9616 5.52002C59.3576 5.52002 62.6616 8.46002 62.6616 13.024V13.248ZM51.3776 13.248C51.3776 16.048 52.6656 17.728 54.9616 17.728C57.2296 17.728 58.5456 16.048 58.5456 13.276V13.08C58.5456 10.28 57.2296 8.60002 54.9616 8.60002C52.7216 8.60002 51.3776 10.224 51.3776 13.024V13.248Z" fill="black"/>
</svg>
