<?xml version="1.0" encoding="iso-8859-1"?>
<!-- Uploaded to: SVG Repo, www.svgrepo.com, Generator: SVG Repo Mixer Tools -->
<svg version="1.1" id="Layer_1" xmlns="http://www.w3.org/2000/svg" xmlns:xlink="http://www.w3.org/1999/xlink" 
	 viewBox="0 0 512.001 512.001" xml:space="preserve">
<polygon style="fill:#7E8488;" points="391.951,7.721 391.951,39.705 359.967,39.705 327.982,39.705 184.054,39.705 152.07,39.705 
	120.085,39.705 120.085,7.721 "/>
<g>
	<rect x="327.983" y="39.705" style="fill:#E7ECED;" width="31.984" height="71.967"/>
	<rect x="152.068" y="39.705" style="fill:#E7ECED;" width="31.984" height="71.967"/>
</g>
<polygon style="fill:#EF3E25;" points="375.959,239.606 375.959,335.559 303.994,335.559 303.994,407.523 208.042,407.523 
	208.042,335.559 136.077,335.559 136.077,239.606 208.042,239.606 208.042,167.641 303.994,167.641 303.994,239.606 "/>
<g>
	<rect x="399.95" y="463.491" style="fill:#7E8488;" width="79.961" height="39.98"/>
	<rect x="32.129" y="463.491" style="fill:#7E8488;" width="79.961" height="39.98"/>
</g>
<path style="fill:#C3C7C9;" d="M503.896,463.496h-23.988h-79.961H112.089h-79.96H8.14V167.641v-55.973h143.929h31.984h143.929
	h31.984h143.929v351.827H503.896z M375.959,335.559v-95.953h-71.965v-71.965h-95.953v71.965h-71.965v95.953h71.965v71.965h95.953
	v-71.965H375.959z"/>
<rect x="8.14" y="111.671" style="fill:#9DA1A4;" width="495.755" height="55.972"/>
<polygon style="fill:#EF1925;" points="208.042,167.641 208.042,239.606 136.077,239.606 136.077,335.559 208.042,335.559 
	208.042,407.523 256.018,407.523 256.018,167.641 "/>
<path d="M368.071,103.949V48.229h31.984V0H111.945v48.229h31.984v55.719H0V472.02h23.988v39.981h96.206V472.02h271.613v39.981
	h96.206V472.02h23.988V103.949H368.071z M128.19,31.984V16.245h255.62v15.739H128.19z M351.826,48.229v55.719h-15.739V48.229
	H351.826z M319.842,48.229v55.719H192.159V48.229H319.842z M175.914,48.229v55.719h-15.739V48.229H175.914z M103.949,495.755H40.233
	v-23.736h63.715V495.755z M471.768,495.755h-63.715v-23.736h63.715V495.755z M495.755,159.921H343.957v16.245h103.822v215.767
	h16.245V176.166h31.73v279.609H16.245V176.166h31.73v215.767h16.245V176.166h103.822v-16.245H16.245v-39.726h479.509V159.921z"/>
<path d="M127.937,344.083h71.965v71.965H312.1v-71.965h71.965V231.885H312.1v-71.965H199.902v71.965h-71.965V344.083z
	 M144.182,248.131h71.965v-71.965h79.707v71.965h71.965v79.707h-71.965v71.965h-79.707v-71.965h-71.965L144.182,248.131
	L144.182,248.131z"/>
<g>
	<rect x="248.002" y="191.901" style="fill:#FFFFFF;" width="15.992" height="16.245"/>
	<rect x="248.002" y="367.817" style="fill:#FFFFFF;" width="15.992" height="16.245"/>
	<rect x="335.965" y="279.864" style="fill:#FFFFFF;" width="15.992" height="16.245"/>
	<rect x="160.049" y="279.864" style="fill:#FFFFFF;" width="15.992" height="16.245"/>
	<rect x="48.108" y="407.802" style="fill:#FFFFFF;" width="15.992" height="16.245"/>
	<rect x="447.907" y="407.802" style="fill:#FFFFFF;" width="15.993" height="16.245"/>
</g>
</svg>